<svg width="502" height="128" viewBox="0 0 502 128" fill="none" xmlns="http://www.w3.org/2000/svg">
<path d="M21.064 31.48V97H14.44V31.48H0.76V25H14.44V1.24H21.064V25H34.6V31.48H21.064ZM98.0219 97V53.08C98.0219 50.2 97.4459 47.464 96.2939 44.872C95.2379 42.28 93.7019 39.976 91.6859 37.96C89.6699 36.04 87.3179 34.552 84.6299 33.496C81.9419 32.344 79.1579 31.768 76.2779 31.768C70.1339 31.768 64.9979 33.832 60.8699 37.96C58.8539 39.976 57.2699 42.28 56.1179 44.872C54.9659 47.464 54.3899 50.2 54.3899 53.08V97H47.6219V0.951992H54.3899V36.952C58.2299 32.536 61.8299 29.512 65.1899 27.88C68.6459 26.152 72.3419 25.288 76.2779 25.288C80.2139 25.288 83.9099 26.008 87.3659 27.448C90.8219 28.792 93.8459 30.76 96.4379 33.352C99.1259 36.04 101.19 39.064 102.63 42.424C104.07 45.784 104.79 49.336 104.79 53.08V97H98.0219ZM153.04 32.2C150.448 31.336 148.096 30.904 145.984 30.904C140.512 30.904 135.808 32.776 131.872 36.52C130.048 38.344 128.608 40.456 127.552 42.856C126.496 45.256 125.968 47.704 125.968 50.2V97H119.2V50.2C119.2 45.112 120.544 40.552 123.232 36.52C126.016 32.392 129.808 29.176 134.608 26.872C138.064 25.24 141.856 24.424 145.984 24.424C151.264 24.424 156.016 25.72 160.24 28.312L153.04 32.2ZM224.919 97V80.44C221.271 86.392 216.951 90.76 211.959 93.544C207.063 96.328 201.447 97.72 195.111 97.72C190.119 97.72 185.415 96.808 180.999 94.984C176.679 93.16 172.839 90.568 169.479 87.208C166.119 83.944 163.479 80.104 161.559 75.688C159.735 71.176 158.823 66.472 158.823 61.576C158.823 56.68 159.735 52.024 161.559 47.608C163.479 43.096 166.119 39.16 169.479 35.8C172.839 32.44 176.679 29.848 180.999 28.024C185.415 26.2 190.119 25.288 195.111 25.288C202.023 25.288 207.975 26.632 212.967 29.32C218.055 32.008 222.039 35.992 224.919 41.272V27.016H231.543V97H224.919ZM195.111 31.768C191.079 31.768 187.191 32.536 183.447 34.072C179.799 35.608 176.631 37.72 173.943 40.408C171.255 43.096 169.143 46.312 167.607 50.056C166.071 53.704 165.303 57.544 165.303 61.576C165.303 65.608 166.071 69.448 167.607 73.096C169.143 76.744 171.255 79.912 173.943 82.6C176.631 85.288 179.799 87.4 183.447 88.936C187.191 90.472 191.079 91.24 195.111 91.24C199.047 91.24 202.839 90.472 206.487 88.936C210.135 87.4 213.303 85.288 215.991 82.6C218.679 79.912 220.791 76.744 222.327 73.096C223.959 69.448 224.775 65.608 224.775 61.576C224.775 57.544 224.007 53.704 222.471 50.056C220.935 46.312 218.823 43.096 216.135 40.408C213.447 37.72 210.279 35.608 206.631 34.072C202.983 32.536 199.143 31.768 195.111 31.768ZM275.711 127.672C270.623 127.672 265.871 126.568 261.455 124.36C257.135 122.152 253.487 119.128 250.511 115.288L256.415 111.976C258.623 114.856 261.407 117.112 264.767 118.744C268.127 120.376 271.775 121.192 275.711 121.192C282.431 121.192 288.239 118.84 293.135 114.136C295.535 111.736 297.311 109.288 298.463 106.792C299.711 104.392 300.335 101.608 300.335 98.44V85.768C296.303 90.472 292.415 93.592 288.671 95.128C284.927 96.664 280.607 97.432 275.711 97.432C271.583 97.432 267.599 96.664 263.759 95.128C260.015 93.592 256.703 91.48 253.823 88.792C250.847 86.008 248.543 82.84 246.911 79.288C245.279 75.64 244.463 71.848 244.463 67.912V25H251.087V66.904C251.087 73.528 253.487 79.24 258.287 84.04C260.495 86.248 263.087 87.976 266.063 89.224C269.135 90.472 272.351 91.096 275.711 91.096C282.623 91.096 288.431 88.744 293.135 84.04C297.935 79.24 300.335 73.528 300.335 66.904V25H306.959V98.44C306.959 102.472 306.191 106.12 304.655 109.384C303.119 112.648 300.863 115.768 297.887 118.744C295.007 121.624 291.647 123.832 287.807 125.368C283.967 126.904 279.935 127.672 275.711 127.672ZM384.669 97V80.44C381.021 86.392 376.701 90.76 371.709 93.544C366.813 96.328 361.197 97.72 354.861 97.72C349.869 97.72 345.165 96.808 340.749 94.984C336.429 93.16 332.589 90.568 329.229 87.208C325.869 83.944 323.229 80.104 321.309 75.688C319.485 71.176 318.573 66.472 318.573 61.576C318.573 56.68 319.485 52.024 321.309 47.608C323.229 43.096 325.869 39.16 329.229 35.8C332.589 32.44 336.429 29.848 340.749 28.024C345.165 26.2 349.869 25.288 354.861 25.288C361.773 25.288 367.725 26.632 372.717 29.32C377.805 32.008 381.789 35.992 384.669 41.272V27.016H391.293V97H384.669ZM354.861 31.768C350.829 31.768 346.941 32.536 343.197 34.072C339.549 35.608 336.381 37.72 333.693 40.408C331.005 43.096 328.893 46.312 327.357 50.056C325.821 53.704 325.053 57.544 325.053 61.576C325.053 65.608 325.821 69.448 327.357 73.096C328.893 76.744 331.005 79.912 333.693 82.6C336.381 85.288 339.549 87.4 343.197 88.936C346.941 90.472 350.829 91.24 354.861 91.24C358.797 91.24 362.589 90.472 366.237 88.936C369.885 87.4 373.053 85.288 375.741 82.6C378.429 79.912 380.541 76.744 382.077 73.096C383.709 69.448 384.525 65.608 384.525 61.576C384.525 57.544 383.757 53.704 382.221 50.056C380.685 46.312 378.573 43.096 375.885 40.408C373.197 37.72 370.029 35.608 366.381 34.072C362.733 32.536 358.893 31.768 354.861 31.768ZM494.933 97V51.064C494.933 48.472 494.405 45.976 493.349 43.576C492.389 41.176 491.045 39.064 489.317 37.24C487.589 35.512 485.573 34.168 483.269 33.208C480.965 32.152 478.517 31.624 475.925 31.624C470.645 31.624 466.133 33.496 462.389 37.24C460.661 38.968 459.269 41.032 458.213 43.432C457.253 45.736 456.773 48.184 456.773 50.776V97H450.293V50.776C450.293 48.184 449.765 45.736 448.709 43.432C447.749 41.032 446.405 38.968 444.677 37.24C442.949 35.512 440.885 34.168 438.485 33.208C436.181 32.152 433.733 31.624 431.141 31.624C428.645 31.624 426.245 32.152 423.941 33.208C421.637 34.168 419.573 35.56 417.749 37.384C416.021 39.208 414.629 41.368 413.573 43.864C412.613 46.264 412.133 48.76 412.133 51.352V97H405.653V27.016H412.133V36.232C414.149 32.392 416.933 29.56 420.485 27.736C424.133 25.912 427.685 25 431.141 25C439.877 25 447.317 29.32 453.461 37.96C459.797 29.32 467.285 25 475.925 25C479.381 25 482.645 25.672 485.717 27.016C488.789 28.264 491.525 30.088 493.925 32.488C496.325 34.888 498.149 37.72 499.397 40.984C500.741 44.152 501.413 47.512 501.413 51.064V97H494.933Z" fill="white"/>
</svg>
